# xmcd
#
# Track frame offsets: 
#        150
#        16452
#        31129
#        40584
#        53918
#        67024
#        79081
#        91187
#        108463
#        121871
#        151772
#        166072
#
# Disc length: 2443 seconds
#
# Revision: 2
# Processed by: cddbd v1.5.2PL0 Copyright (c) Steve Scherf et al.
# Submitted via: ExactAudioCopy v1.0b3
#
DISCID=8509890c
DTITLE=Daryl Davis - American Roots
DYEAR=2000
DGENRE=Blues
TTITLE0=I'm A Boogie Man
TTITLE1=Leave Me Alone
TTITLE2=We All Owe A Debt
TTITLE3=Let Me Boogie With Your Woogie
TTITLE4=Going Back To The Country
TTITLE5=Romp In The Swamp
TTITLE6=Broadminded
TTITLE7=Double "D" Blues
TTITLE8=Karen Lee
TTITLE9=I'm Coming Back
TTITLE10=One Foot In The Graveyard
TTITLE11=Y2K Boogie
EXTD=
EXTT0=
EXTT1=
EXTT2=(Dedicated to Chuck Berry)
EXTT3=
EXTT4=
EXTT5=
EXTT6=
EXTT7=(Dedicated to Johnnie Johnson)
EXTT8=
EXTT9=
EXTT10=
EXTT11=(Dedicated to Pinetop Perkins)
PLAYORDER=
